<svg width="17" height="18" viewBox="0 0 17 18" fill="none" xmlns="http://www.w3.org/2000/svg">
<path d="M7.85628 8.75C8.72157 8.75 9.56743 8.49341 10.2869 8.01268C11.0064 7.53195 11.5671 6.84867 11.8983 6.04924C12.2294 5.24982 12.316 4.37015 12.1472 3.52148C11.9784 2.67281 11.5617 1.89326 10.9499 1.28141C10.338 0.669555 9.55847 0.252877 8.7098 0.0840664C7.86113 -0.084744 6.98147 0.00189561 6.18204 0.333029C5.38261 0.664162 4.69933 1.22492 4.2186 1.94438C3.73787 2.66385 3.48128 3.50971 3.48128 4.375C3.4826 5.53492 3.94396 6.64695 4.76415 7.46713C5.58433 8.28732 6.69636 8.74868 7.85628 8.75ZM7.85628 1.25C8.47435 1.25 9.07853 1.43328 9.59244 1.77666C10.1063 2.12004 10.5069 2.6081 10.7434 3.17912C10.9799 3.75013 11.0418 4.37847 10.9212 4.98466C10.8007 5.59085 10.503 6.14767 10.066 6.58471C9.62895 7.02175 9.07213 7.31938 8.46594 7.43996C7.85975 7.56053 7.23141 7.49865 6.66039 7.26213C6.08937 7.0256 5.60132 6.62506 5.25794 6.11116C4.91456 5.59726 4.73128 4.99307 4.73128 4.375C4.73227 3.5465 5.06183 2.75223 5.64767 2.16639C6.2335 1.58055 7.02778 1.25099 7.85628 1.25ZM15.2607 14.375L16.5869 13.0494C16.7008 12.9315 16.7637 12.7736 16.7623 12.6098C16.7609 12.4459 16.6952 12.2891 16.5793 12.1732C16.4634 12.0574 16.3067 11.9916 16.1428 11.9902C15.9789 11.9888 15.821 12.0518 15.7032 12.1656L14.3769 13.4913L13.0507 12.1656C12.9328 12.0518 12.7749 11.9888 12.611 11.9902C12.4472 11.9916 12.2904 12.0574 12.1745 12.1732C12.0586 12.2891 11.9929 12.4459 11.9915 12.6098C11.9901 12.7736 12.0531 12.9315 12.1669 13.0494L13.4932 14.375L12.1669 15.7006C12.1072 15.7583 12.0596 15.8272 12.0268 15.9035C11.9941 15.9798 11.9768 16.0618 11.9761 16.1448C11.9754 16.2277 11.9912 16.31 12.0226 16.3868C12.0541 16.4637 12.1005 16.5334 12.1592 16.5921C12.2178 16.6508 12.2876 16.6972 12.3644 16.7286C12.4412 16.7601 12.5235 16.7759 12.6065 16.7752C12.6895 16.7744 12.7715 16.7572 12.8478 16.7244C12.924 16.6917 12.993 16.6441 13.0507 16.5844L14.3769 15.2588L15.7032 16.5844C15.821 16.6982 15.9789 16.7612 16.1428 16.7598C16.3067 16.7584 16.4634 16.6926 16.5793 16.5768C16.6952 16.4609 16.7609 16.3041 16.7623 16.1403C16.7637 15.9764 16.7008 15.8185 16.5869 15.7006L15.2607 14.375ZM10.6269 16.25H1.8894C1.78713 16.2506 1.6862 16.2267 1.59508 16.1803C1.50395 16.1338 1.42528 16.0662 1.36565 15.9831C1.3106 15.911 1.27384 15.8265 1.25849 15.7371C1.24315 15.6476 1.24968 15.5558 1.27753 15.4694C1.58029 14.5795 2.0601 13.7602 2.68805 13.0608C3.31599 12.3614 4.07906 11.7964 4.93125 11.3999C5.78344 11.0033 6.70711 10.7834 7.64656 10.7535C8.58602 10.7236 9.52181 10.8842 10.3975 11.2256C10.5518 11.2865 10.7239 11.2835 10.8759 11.2175C11.028 11.1514 11.1476 11.0277 11.2085 10.8734C11.2693 10.7192 11.2664 10.5471 11.2003 10.395C11.1343 10.243 11.0105 10.1233 10.8563 10.0625C9.82172 9.65855 8.71599 9.46862 7.60594 9.5042C6.49588 9.53977 5.40458 9.80011 4.39801 10.2695C3.39145 10.7389 2.49053 11.4075 1.74975 12.235C1.00897 13.0625 0.443709 14.0316 0.0881542 15.0838C-0.000596745 15.3578 -0.0227385 15.6491 0.0235647 15.9334C0.0698678 16.2178 0.183282 16.487 0.354404 16.7188C0.530889 16.9604 0.761841 17.1571 1.02853 17.2928C1.29523 17.4286 1.59016 17.4995 1.8894 17.5H10.6269C10.7927 17.5 10.9516 17.4342 11.0688 17.3169C11.1861 17.1997 11.2519 17.0408 11.2519 16.875C11.2519 16.7092 11.1861 16.5503 11.0688 16.4331C10.9516 16.3158 10.7927 16.25 10.6269 16.25Z" fill="#FF0000"/>
</svg>
