<svg width="16" height="16" viewBox="0 0 16 16" fill="none" xmlns="http://www.w3.org/2000/svg">
<path d="M13.2296 2.35905H11.1541V2.06273C11.1541 1.36769 10.5887 0.802246 9.89362 0.802246H6.10642C5.41138 0.802246 4.84594 1.36769 4.84594 2.06273V2.35905H2.77042C2.50897 2.35934 2.25831 2.46332 2.07343 2.64818C1.88854 2.83304 1.78452 3.08368 1.78418 3.34513V3.81265C1.78418 4.32161 2.17186 4.74161 2.66722 4.79345L3.68274 13.7048C3.77954 14.5558 4.49874 15.1976 5.35538 15.1976H10.6445C11.5011 15.1976 12.2203 14.5558 12.3171 13.7048L13.3327 4.79345C13.5749 4.76767 13.7991 4.65326 13.9621 4.47222C14.1251 4.29117 14.2154 4.05626 14.2157 3.81265V3.34513C14.2154 3.08368 14.1113 2.83304 13.9265 2.64818C13.7416 2.46332 13.4911 2.35934 13.2296 2.35905ZM5.4861 2.06273C5.48627 1.89822 5.5517 1.74049 5.66802 1.62417C5.78435 1.50784 5.94207 1.44242 6.10658 1.44225H9.89378C10.0583 1.44242 10.216 1.50784 10.3323 1.62417C10.4487 1.74049 10.5141 1.89822 10.5143 2.06273V2.35905H5.4861V2.06273ZM11.6815 13.6323C11.6526 13.887 11.5309 14.1221 11.3397 14.2928C11.1485 14.4635 10.9011 14.5577 10.6448 14.5576H5.3557C5.09939 14.5577 4.85201 14.4635 4.6608 14.2928C4.46958 14.1221 4.34793 13.887 4.31906 13.6323L3.3125 4.79889H12.6882L11.6815 13.6323ZM13.576 3.81265C13.5759 3.90444 13.5394 3.99243 13.4745 4.05733C13.4096 4.12224 13.3216 4.15876 13.2298 4.15889H2.77042C2.67863 4.15876 2.59064 4.12224 2.52573 4.05733C2.46083 3.99243 2.42431 3.90444 2.42418 3.81265V3.34513C2.42418 3.15441 2.57954 2.99905 2.77042 2.99905H13.2295C13.4203 2.99905 13.5757 3.15441 13.5757 3.34513V3.81265H13.576Z" fill="#EF4444"/>
<path d="M7.99998 12.8256C8.08485 12.8256 8.16624 12.7919 8.22626 12.7319C8.28627 12.6719 8.31998 12.5905 8.31998 12.5056V6.85088C8.31998 6.76601 8.28627 6.68462 8.22626 6.62461C8.16624 6.5646 8.08485 6.53088 7.99998 6.53088C7.91511 6.53088 7.83372 6.5646 7.77371 6.62461C7.7137 6.68462 7.67998 6.76601 7.67998 6.85088V12.5056C7.67998 12.5905 7.7137 12.6719 7.77371 12.7319C7.83372 12.7919 7.91511 12.8256 7.99998 12.8256ZM9.91294 12.8107C9.95476 12.8148 9.99698 12.8107 10.0372 12.7984C10.0774 12.7862 10.1148 12.7662 10.1472 12.7395C10.1797 12.7128 10.2066 12.68 10.2263 12.6429C10.2461 12.6058 10.2583 12.5652 10.2624 12.5234L10.8105 6.8952C10.8188 6.81074 10.7932 6.72645 10.7393 6.66089C10.6854 6.59533 10.6076 6.55386 10.5232 6.5456C10.4813 6.54123 10.439 6.54523 10.3987 6.55735C10.3583 6.56947 10.3208 6.58947 10.2883 6.61621C10.2558 6.64294 10.2289 6.67587 10.2092 6.71308C10.1895 6.75029 10.1774 6.79104 10.1736 6.83296L9.62542 12.4611C9.61717 12.5456 9.64281 12.6299 9.6967 12.6954C9.75059 12.761 9.82848 12.8025 9.91294 12.8107ZM6.05566 12.8123C6.10034 12.8124 6.14452 12.803 6.18538 12.785C6.22623 12.7669 6.26285 12.7405 6.29287 12.7074C6.3229 12.6743 6.34566 12.6353 6.3597 12.5929C6.37374 12.5505 6.37874 12.5056 6.37438 12.4611L5.82622 6.83296C5.82238 6.79104 5.81026 6.75031 5.79056 6.71311C5.77085 6.67591 5.74396 6.64299 5.71145 6.61626C5.67893 6.58953 5.64143 6.56952 5.60112 6.55739C5.56081 6.54526 5.51849 6.54126 5.47662 6.5456C5.39216 6.55386 5.31443 6.59533 5.26054 6.66089C5.20665 6.72645 5.18101 6.81074 5.18926 6.8952L5.73742 12.5234C5.74513 12.6024 5.78195 12.6758 5.84074 12.7292C5.89953 12.7826 5.97624 12.8122 6.05566 12.8123Z" fill="#EF4444"/>
</svg>
