<svg width="16" height="16" viewBox="0 0 16 16" fill="none" xmlns="http://www.w3.org/2000/svg">
<g clip-path="url(#clip0_9029_3018)">
<path d="M14.6267 1.83995L14.1534 1.36662C13.8088 1.02392 13.3427 0.831543 12.8567 0.831543C12.3708 0.831543 11.9046 1.02392 11.56 1.36662L4.68671 8.25329C4.49337 8.44662 4.37337 8.69995 4.34671 8.97329L4.16671 10.9266C4.14671 11.1733 4.23337 11.4133 4.40671 11.5933C4.56671 11.7533 4.77337 11.84 4.99337 11.84H5.06671L7.02004 11.66C7.29337 11.6333 7.54671 11.5133 7.74004 11.32L14.62 4.43995C14.7908 4.27063 14.9264 4.06916 15.0189 3.84718C15.1114 3.6252 15.159 3.3871 15.159 3.14662C15.159 2.90614 15.1114 2.66803 15.0189 2.44605C14.9264 2.22407 14.7908 2.02261 14.62 1.85328L14.6267 1.83995ZM7.04004 10.6066C7.04004 10.6066 6.97337 10.6533 6.94004 10.6533L5.18671 10.8133L5.34671 9.05995C5.34671 9.01995 5.36671 8.98662 5.39337 8.95329L10.98 3.36662L12.6267 5.01328L7.04004 10.6V10.6066ZM13.92 3.72662L13.3334 4.31328L11.6867 2.66662L12.2734 2.07995C12.4334 1.91995 12.6467 1.83328 12.86 1.83328C13.0734 1.83328 13.2867 1.91328 13.4467 2.07995L13.92 2.55328C13.9979 2.62985 14.0598 2.72116 14.102 2.82188C14.1442 2.92261 14.166 3.03073 14.166 3.13995C14.166 3.24917 14.1442 3.35729 14.102 3.45802C14.0598 3.55874 13.9979 3.65005 13.92 3.72662ZM13.8334 8.79328V12.6666C13.8334 14.0466 12.7134 15.1666 11.3334 15.1666H3.33337C1.95337 15.1666 0.833374 14.0466 0.833374 12.6666V4.66662C0.833374 3.28662 1.95337 2.16662 3.33337 2.16662H7.20671C7.48004 2.16662 7.70671 2.39328 7.70671 2.66662C7.70671 2.93995 7.48004 3.16662 7.20671 3.16662H3.33337C2.50671 3.16662 1.83337 3.83995 1.83337 4.66662V12.6666C1.83337 13.4933 2.50671 14.1666 3.33337 14.1666H11.3334C12.16 14.1666 12.8334 13.4933 12.8334 12.6666V8.79328C12.8334 8.51995 13.06 8.29328 13.3334 8.29328C13.6067 8.29328 13.8334 8.51995 13.8334 8.79328Z" fill="#84C000"/>
</g>
<defs>
<clipPath id="clip0_9029_3018">
<rect width="16" height="16" fill="white"/>
</clipPath>
</defs>
</svg>
