<svg width="23" height="23" viewBox="0 0 23 23" fill="none" xmlns="http://www.w3.org/2000/svg">
<path d="M12.6 0.0793894C9.3825 -0.303111 6.165 0.709389 3.7725 2.83939C1.3725 4.97689 0 8.03689 0 11.2469C0 17.4494 5.0475 22.4969 11.25 22.4969C11.8725 22.4969 12.375 21.9944 12.375 21.3719C12.375 20.7494 11.8725 20.2469 11.25 20.2469C6.285 20.2469 2.25 16.2119 2.25 11.2469C2.25 8.68189 3.3525 6.22939 5.265 4.51939C7.215 2.78689 9.7275 2.00689 12.345 2.30689C16.29 2.77189 19.5675 5.94439 20.145 9.85189C20.355 11.2769 20.25 12.6644 19.8225 13.9919C19.5525 14.8619 18.8025 14.8469 18.495 14.7944C18.315 14.7644 17.4 14.5769 17.4 13.5494L17.4075 11.2469C17.4075 7.84939 14.6475 5.08939 11.25 5.08939C7.8525 5.08939 5.0925 7.84939 5.0925 11.2469C5.0925 14.6444 7.8525 17.4044 11.25 17.4044C12.9375 17.4044 14.565 16.6919 15.7125 15.4694C16.23 16.2794 17.0925 16.8569 18.15 17.0219C19.6125 17.2469 21.3525 16.6094 21.9675 14.6744C22.5 13.0169 22.635 11.2919 22.3725 9.52939C21.6525 4.62439 17.5425 0.649389 12.6 0.0793894ZM15.5287 11.2469V11.3151C15.5188 11.8949 15.3899 12.4665 15.15 12.9944C15.0975 13.1294 15.03 13.2569 14.955 13.3844C14.5793 14.0351 14.0394 14.5756 13.3892 14.9521C12.739 15.3285 12.0013 15.5276 11.25 15.5294C8.8875 15.5294 6.9675 13.6094 6.9675 11.2469C6.9675 8.88439 8.8875 6.96439 11.25 6.96439C13.35 6.96439 15.105 8.48689 15.4575 10.4894C15.5093 10.7249 15.531 10.9746 15.5317 11.2319C15.5317 11.2371 15.5287 11.2416 15.5287 11.2469Z" fill="#84C000"/>
</svg>
