<svg width="16" height="16" viewBox="0 0 16 16" fill="none" xmlns="http://www.w3.org/2000/svg">
<path fill-rule="evenodd" clip-rule="evenodd" d="M12.7132 2.71131H3.82252C3.52778 2.71131 3.2451 2.8284 3.03669 3.03681C2.82827 3.24523 2.71119 3.5279 2.71119 3.82264V12.7133C2.71119 13.0081 2.82827 13.2907 3.03669 13.4991C3.2451 13.7076 3.52778 13.8246 3.82252 13.8246H12.7132C13.0079 13.8246 13.2906 13.7076 13.499 13.4991C13.7074 13.2907 13.8245 13.0081 13.8245 12.7133V3.82264C13.8245 3.5279 13.7074 3.24523 13.499 3.03681C13.2906 2.8284 13.0079 2.71131 12.7132 2.71131ZM3.82252 1.59998C3.23303 1.59998 2.66769 1.83415 2.25086 2.25098C1.83403 2.66781 1.59985 3.23315 1.59985 3.82264V12.7133C1.59985 13.3028 1.83403 13.8681 2.25086 14.285C2.66769 14.7018 3.23303 14.936 3.82252 14.936H12.7132C13.3027 14.936 13.868 14.7018 14.2848 14.285C14.7017 13.8681 14.9359 13.3028 14.9359 12.7133V3.82264C14.9359 3.23315 14.7017 2.66781 14.2848 2.25098C13.868 1.83415 13.3027 1.59998 12.7132 1.59998H3.82252Z" fill="#22C55E"/>
</svg>
